HIERARCHY
ROOT SpineBase
{
  OFFSET 0.000000 0.000000 0.000000
  CHANNELS 6 Xposition Yposition Zposition Zrotation Xrotation Yrotation
  JOINT SpineMid
  {
    OFFSET 0.000000 27.162449 0.000000
    CHANNELS 3 Zrotation Xrotation Yrotation
    JOINT SpineShoulder
    {
      OFFSET 0.019773 20.221625 -0.572803
      CHANNELS 3 Zrotation Xrotation Yrotation
      JOINT Neck
      {
        OFFSET 0.006225 6.714732 -0.471257
        CHANNELS 3 Zrotation Xrotation Yrotation
        JOINT Head
        {
          OFFSET 0.611943 12.577399 0.952750
          CHANNELS 3 Zrotation Xrotation Yrotation
          End Site
          {
            OFFSET 0 0 0
          }
        }
      }
      JOINT ShoulderLeft
      {
        OFFSET -12.455853 -3.397975 -7.685320
        CHANNELS 3 Zrotation Xrotation Yrotation
        JOINT ElbowLeft
        {
          OFFSET -5.726008 -15.662090 -1.880872
          CHANNELS 3 Zrotation Xrotation Yrotation
          JOINT WristLeft
          {
            OFFSET 19.519643 0.927568 -9.616009
            CHANNELS 3 Zrotation Xrotation Yrotation
            JOINT HandLeft
            {
              OFFSET 0.454851 0.409103 -0.560421
              CHANNELS 3 Zrotation Xrotation Yrotation
              JOINT HandTipLeft
              {
                OFFSET 3.430937 -0.852848 -4.006407
                CHANNELS 3 Zrotation Xrotation Yrotation
                End Site
                {
                  OFFSET 0 0 0
                }
              }
              JOINT ThumbLeft
              {
                OFFSET 2.416576 0.422896 -3.926140
                CHANNELS 3 Zrotation Xrotation Yrotation
                End Site
                {
                  OFFSET 0 0 0
                }
              }
            }
          }
        }
      }
      JOINT ShoulderRight
      {
        OFFSET 10.607684 -1.955574 4.005679
        CHANNELS 3 Zrotation Xrotation Yrotation
        JOINT ElbowRight
        {
          OFFSET 5.084274 -15.180930 -8.943555
          CHANNELS 3 Zrotation Xrotation Yrotation
          JOINT WristRight
          {
            OFFSET 6.443430 2.572201 18.832623
            CHANNELS 3 Zrotation Xrotation Yrotation
            JOINT HandRight
            {
              OFFSET 2.178430 0.802182 6.618208
              CHANNELS 3 Zrotation Xrotation Yrotation
              JOINT HandTipRight
              {
                OFFSET 0.307001 2.884348 -0.702492
                CHANNELS 3 Zrotation Xrotation Yrotation
                End Site
                {
                  OFFSET 0 0 0
                }
              }
              JOINT ThumbRight
              {
                OFFSET 0.487826 3.760497 -4.569621
                CHANNELS 3 Zrotation Xrotation Yrotation
                End Site
                {
                  OFFSET 0 0 0
                }
              }
            }
          }
        }
      }
    }
  }
  JOINT HipLeft
  {
    OFFSET -5.073675 0.996783 -4.931625
    CHANNELS 3 Zrotation Xrotation Yrotation
    JOINT KneeLeft
    {
      OFFSET -4.271880 -29.564319 -1.368531
      CHANNELS 3 Zrotation Xrotation Yrotation
      JOINT AnkleLeft
      {
        OFFSET -1.473562 -32.367660 6.859170
        CHANNELS 3 Zrotation Xrotation Yrotation
        JOINT FootLeft
        {
          OFFSET 4.392636 -5.830405 -0.626323
          CHANNELS 3 Zrotation Xrotation Yrotation
          End Site
          {
            OFFSET 0 0 0
          }
        }
      }
    }
  }
  JOINT HipRight
  {
    OFFSET 4.772875 0.473904 -1.179788
    CHANNELS 3 Zrotation Xrotation Yrotation
    JOINT KneeRight
    {
      OFFSET 0.048417 -28.444673 2.715201
      CHANNELS 3 Zrotation Xrotation Yrotation
      JOINT AnkleRight
      {
        OFFSET -4.095341 -34.378382 5.256424
        CHANNELS 3 Zrotation Xrotation Yrotation
        JOINT FootRight
        {
          OFFSET -3.190464 -4.253312 -6.197432
          CHANNELS 3 Zrotation Xrotation Yrotation
          End Site
          {
            OFFSET 0 0 0
          }
        }
      }
    }
  }
}
MOTION
Frames: 10
Frame Time: 0.033333
17.873859 68.479637 372.541291 -0.000000 0.000000 -20.858369 0.000000 0.000000 20.858369 -0.000000 0.000000 0.000000 -0.000000 0.000000 0.000000 0.000000 0.000000 0.000000 -0.000000 0.000000 0.000000 -0.000000 0.000000 0.000000 -0.000000 0.000000 0.000000 -0.000000 0.000000 0.000000 0.000000 0.000000 0.000000 0.000000 0.000000 0.000000 -0.000000 0.000000 0.000000 -0.000000 0.000000 0.000000 -0.000000 0.000000 0.000000 -0.000000 0.000000 0.000000 0.000000 0.000000 0.000000 0.000000 0.000000 0.000000 0.000000 0.000000 20.858369 -0.000000 0.000000 0.000000 -0.000000 0.000000 0.000000 0.000000 0.000000 0.000000 0.000000 0.000000 20.858369 -0.000000 0.000000 0.000000 -0.000000 0.000000 0.000000 0.000000 0.000000 0.000000
17.855149 68.505330 372.582914 -0.052683 0.043723 -21.004221 0.064854 -0.021934 21.004254 -0.000000 0.000000 0.000000 -0.000000 0.000000 0.000000 0.000000 0.000000 0.000000 2.376824 1.308863 -0.796098 -0.173421 -0.142257 -2.879788 -13.482268 -2.421300 -10.293115 20.695899 12.341338 -3.280321 0.000000 0.000000 0.000000 0.000000 0.000000 0.000000 -0.000000 0.000000 0.000000 -0.000000 0.000000 0.000000 -0.000000 0.000000 0.000000 -0.000000 0.000000 0.000000 0.000000 0.000000 0.000000 0.000000 0.000000 0.000000 0.064854 -0.021934 21.004254 -0.000000 0.000000 0.000000 1.910307 0.004220 -0.199614 0.000000 0.000000 0.000000 0.064854 -0.021934 21.004254 -0.000000 0.000000 0.000000 5.637066 6.485629 -12.771807 0.000000 0.000000 0.000000
17.837478 68.526493 372.617082 -0.063414 0.085272 -21.193119 0.089952 -0.056579 21.193211 -0.000000 0.000000 0.000000 -0.000000 0.000000 0.000000 0.000000 0.000000 0.000000 4.136680 2.316031 -1.442971 -0.051574 -0.289843 -5.273342 -17.994908 -4.589821 -10.818599 31.905717 19.080473 -15.583565 0.000000 0.000000 0.000000 0.000000 0.000000 0.000000 -0.000000 0.000000 0.000000 -0.000000 0.000000 0.000000 -0.000000 0.000000 0.000000 -0.000000 0.000000 0.000000 0.000000 0.000000 0.000000 0.000000 0.000000 0.000000 0.089952 -0.056579 21.193211 -0.000000 0.000000 0.000000 3.423607 0.724990 0.153112 0.000000 0.000000 0.000000 0.089952 -0.056579 21.193211 -0.000000 0.000000 0.000000 11.143583 10.590408 -23.483329 0.000000 0.000000 0.000000
17.820846 68.543126 372.643793 -0.032165 0.124658 -21.424764 0.075478 -0.104294 21.424868 -0.000000 0.000000 0.000000 -0.878781 -0.839111 0.100980 0.000000 0.000000 0.000000 5.326623 3.066430 -1.930606 0.246205 -0.436045 -7.103847 -20.698501 -6.655897 -10.278637 39.838046 21.862222 -26.400418 0.000000 0.000000 0.000000 0.000000 0.000000 0.000000 -0.000000 0.000000 0.000000 -0.000000 0.000000 0.000000 -0.000000 0.000000 0.000000 -0.000000 0.000000 0.000000 0.000000 0.000000 0.000000 0.000000 0.000000 0.000000 0.075478 -0.104294 21.424868 -0.000000 0.000000 0.000000 4.576873 2.180356 1.030649 0.000000 0.000000 0.000000 0.075478 -0.104294 21.424868 -0.000000 0.000000 0.000000 15.553114 12.807457 -31.424379 0.000000 0.000000 0.000000
17.805253 68.555229 372.663047 0.041118 0.161890 -21.698685 0.021651 -0.165621 21.698658 -0.000000 0.000000 0.000000 -1.395527 -1.154349 0.147849 0.000000 0.000000 0.000000 5.982149 3.593469 -2.255372 0.641449 -0.567411 -8.335220 -22.570522 -8.456766 -9.781533 45.189811 22.521486 -34.948089 0.000000 0.000000 0.000000 0.000000 0.000000 0.000000 -0.000000 0.000000 0.000000 -0.000000 0.000000 0.000000 -0.000000 0.000000 0.000000 -0.000000 0.000000 0.000000 0.000000 0.000000 0.000000 0.000000 0.000000 0.000000 -0.872181 -0.316285 21.708386 0.886156 -0.190656 -0.012012 5.362173 4.415620 2.448163 0.000000 0.000000 0.000000 0.021651 -0.165621 21.698658 -0.000000 0.000000 0.000000 18.650661 13.880400 -36.788523 0.000000 0.000000 0.000000
17.790699 68.562802 372.674845 0.156513 0.196978 -22.014242 -0.071269 -0.241283 22.013823 0.813521 0.312475 0.054599 -2.843572 -1.798859 0.129710 0.000000 0.000000 0.000000 5.313409 3.602898 -2.441917 1.089927 -0.671551 -8.955642 -23.927928 -9.936133 -9.617876 48.542476 22.045850 -41.769319 0.000000 0.000000 0.000000 0.000000 0.000000 0.000000 -0.813830 -0.311668 -0.059031 -0.000000 0.000000 0.000000 -0.000000 0.000000 0.000000 -0.000000 0.000000 0.000000 0.000000 0.000000 0.000000 0.000000 0.000000 0.000000 -1.055730 -0.351465 22.014331 1.793548 -0.061713 0.167728 4.900494 7.277137 4.313150 0.000000 0.000000 0.000000 -0.245458 0.617101 22.031170 -0.160526 -0.861044 -0.017982 20.557783 14.315901 -40.015409 0.000000 0.000000 0.000000
17.787832 68.561678 372.683213 0.336923 0.260475 -22.398623 0.440675 0.289969 22.421489 0.302737 0.041620 0.057558 -4.099153 -2.321406 0.161437 0.000000 0.000000 0.000000 4.635966 3.746055 -2.503835 1.791820 -0.744510 -9.069064 -25.575239 -11.285115 -10.342021 52.432909 21.373457 -49.614542 0.000000 0.000000 0.000000 0.000000 0.000000 0.000000 -1.158147 -0.400733 -0.084942 -0.000000 0.000000 0.000000 -0.000000 0.000000 0.000000 -0.000000 0.000000 0.000000 0.000000 0.000000 0.000000 0.000000 0.000000 0.000000 -1.290878 -0.221810 22.356155 0.941478 -0.546595 0.039946 5.177815 10.423724 6.550952 0.000000 0.000000 0.000000 -0.553026 0.577794 22.403878 -0.045878 -1.005397 -0.006488 21.459857 12.412828 -40.832062 0.000000 0.000000 0.000000
17.780543 68.559395 372.680070 0.559601 0.309161 -22.808729 0.534523 0.342052 22.839945 0.328641 0.038580 0.073362 -5.453469 -2.812458 0.189107 0.000000 0.000000 0.000000 3.337975 3.714307 -2.384990 2.487804 -0.817286 -8.615322 -26.521634 -12.122374 -11.202193 53.059499 19.331396 -55.624094 0.000000 0.000000 0.000000 0.000000 0.000000 0.000000 -1.514408 -0.453184 -0.111828 -0.000000 0.000000 0.000000 -0.000000 0.000000 0.000000 -0.000000 0.000000 0.000000 0.000000 0.000000 0.000000 0.000000 0.000000 0.000000 -1.471448 -0.260302 22.747554 0.898344 -0.638668 0.055784 5.011352 22.056360 14.449500 0.000000 0.000000 0.000000 -0.894742 0.474250 22.799451 0.081513 -1.093145 0.006692 19.446232 14.035972 -38.123782 0.000000 0.000000 0.000000
17.765023 68.557582 372.667517 0.802127 0.337917 -23.309940 0.612959 0.372010 23.349402 0.333868 0.034125 0.087481 -6.803230 -3.260767 0.213440 0.000000 0.000000 0.000000 1.645870 3.433355 -2.088928 2.883208 -0.879369 -7.271107 -26.960870 -11.920687 -12.973047 49.783507 16.781083 -57.904763 0.000000 0.000000 0.000000 0.000000 0.000000 0.000000 -1.847191 -0.467162 -0.136709 -0.000000 0.000000 0.000000 -0.000000 0.000000 0.000000 -0.000000 0.000000 0.000000 0.000000 0.000000 0.000000 0.000000 0.000000 0.000000 -1.557718 -0.321790 23.236256 1.592229 -0.853910 0.261466 -0.292078 31.170800 22.485440 0.000000 0.000000 0.000000 -1.241101 0.331695 23.284821 0.206913 -1.133509 0.019850 17.165431 12.464188 -33.854038 0.000000 0.000000 0.000000
17.743327 68.549921 372.641436 1.037525 0.330815 -23.757645 0.656190 0.362099 23.804278 0.311761 0.023265 0.097248 -7.922501 -3.610959 0.237741 0.000000 0.000000 0.000000 -0.124654 2.950410 -1.670903 2.675979 -1.043790 -4.846854 -26.460840 -12.379074 -13.935273 43.725332 14.151195 -59.314325 0.000000 0.000000 0.000000 0.000000 0.000000 0.000000 -2.096823 -0.415982 -0.154362 -0.000000 0.000000 0.000000 -0.000000 0.000000 0.000000 -0.000000 0.000000 0.000000 0.000000 0.000000 0.000000 0.000000 0.000000 0.000000 -1.588892 -0.394293 23.680585 1.446569 -0.956768 0.276499 -3.467683 34.541442 26.544542 0.000000 0.000000 0.000000 -1.545248 0.153427 23.717661 0.315699 -1.093469 0.031258 17.732497 11.976068 -34.571171 0.000000 0.000000 0.000000
